<?xml version="1.0" encoding="utf-8"?>
<!-- Generator: Adobe Illustrator 22.0.0, SVG Export Plug-In . SVG Version: 6.00 Build 0)  -->
<svg version="1.1" id="Layer_1" xmlns="http://www.w3.org/2000/svg" xmlns:xlink="http://www.w3.org/1999/xlink" x="0px" y="0px"
	 viewBox="0 0 232.2 62.3" style="enable-background:new 0 0 232.2 62.3;" xml:space="preserve">
<style type="text/css">
	.st0{fill:#78685B;}
	.st1{fill:#03B2B7;}
	.st2{enable-background:new    ;}
</style>
<title>brand-logo-trans</title>
<path class="st0" d="M131.6,0.1c1.5,0.7,3.1,1.3,3.6,3.1c0.5,1.6-0.3,3.3-1.9,3.8c-1.4,0.4-2.9-0.2-3.6-1.5c-0.9-1.8,0.1-3,1.5-4.1
	c-1.8-0.5-3.7,0-5,1.4c-1.6,1.8-2.1,4.5-2.6,6.8c-0.6,2.6-1.1,5.1-1.6,7.7c-0.2,1.1-0.1,2.1-1.4,2.1h-3.8c0.5-2.5,1.1-5,1.6-7.5
	c0.4-2.4,1.2-4.7,2.5-6.7c1-1.6,2.5-2.9,4.2-3.8c0.9-0.5,1.8-0.9,2.8-1.1C129.1,0,130.3,0,131.6,0.1z"/>
<path class="st0" d="M55,38.2c0.9,0.5,0.5,1.1,0,1.8s-1,1.5-1.6,2.1c-1.2,1.5-2.8,2.6-4.7,3c-1.4,0.3-2.8-0.2-3.8-1.1
	c-1.1-1.2-1.2-2.8-1.5-4.3c-1.4,1.9-3.1,3.5-5.2,4.6c-1.9,0.9-4.1,1.1-6.2,0.5c-3.9-1.2-6.1-4.5-6.6-8.5c-1.2-8.7,6.1-17.2,14.4-19
	c1.6-0.5,3.4-0.4,5,0.2c1.8,0.9,3.1,2.5,3.7,4.4c0.3-0.6,0.5-1.2,0.7-1.9c0.1-0.5,0.2-1.3,0.7-1.6s1.6-0.1,2.1-0.1h2.5
	c-0.2,1.5-0.6,2.9-1.2,4.3l-1.5,4.8l-3,9.7c-0.4,1.3-2.5,6.2,0.3,6.3c1.2,0,2.4-1.1,3.1-1.9C53.3,40.5,54.2,39.4,55,38.2z
	 M30.3,37.8c0,1.8,0.2,3.8,1.5,5.1c1.1,1,2.6,1.4,4,1.1c5.1-0.8,7.4-5.7,8.9-10c1-2.8,1.9-5.6,2.8-8.5c0.7-2,0.2-4.2-1.3-5.7
	s-3.8-2.1-5.9-1.4c-2.2,0.7-3.6,2.5-4.9,4.3C32.3,27.2,31,32.5,30.3,37.8L30.3,37.8z"/>
<path class="st0" d="M143.7,16.6c5.1,0,9.8,2.9,11.2,8s-0.3,11.7-3.8,15.7c-4.3,5.2-11.8,6.7-17.8,3.4c-5.2-3-5.8-9.7-4.4-15
	c0.9-3.3,2.7-6.2,5.2-8.5C136.8,17.8,140.2,16.5,143.7,16.6z M133.3,36.5c0,4.1,2.1,8,6.6,8c5.2,0,7.4-5.5,8.8-9.6
	c0.9-2.5,1.5-5.1,1.7-7.7c0.3-2.3,0-4.6-1-6.7c-1-1.8-2.9-2.9-5-3c-2.3-0.1-4.5,0.9-6,2.7c-1.7,2.2-3,4.8-3.6,7.5
	C134,30.6,133.5,33.5,133.3,36.5L133.3,36.5z"/>
<path class="st0" d="M230.2,38.4c-2.2,3.4-5.2,6.2-9.3,6.8c-3.2,0.5-6.7-0.1-9-2.5c-2.5-2.7-2.7-6.5-2.3-9.9
	c0.4-3.9,2.1-7.6,4.7-10.6c2.9-3.3,6.8-5.8,11.3-5.5c3.4,0.2,6.3,2.5,6.6,6.1c0.3,3.7-2.1,7.2-5.2,9c-1.8,1-3.7,1.6-5.7,1.9
	c-1.3,0.1-2.5,0.2-3.8,0.1c-0.7,0-2.5-0.5-3,0.3c-0.2,0.5-0.2,1-0.1,1.6c0,0.7,0,1.3,0.1,2c0.1,1.3,0.4,2.6,1,3.7
	c0.8,1.6,2.4,2.7,4.2,2.9c2.2,0.1,4.3-0.7,6-2.1c0.9-0.7,1.7-1.6,2.4-2.5C228.6,39,229.3,37.3,230.2,38.4z M214.7,32.6
	c6.3,0.6,14.7-1.7,15.7-9.1c0.4-2.6-0.9-5.2-3.7-5.7c-3.4-0.6-6,2.2-7.8,4.6C216.9,25.6,215.4,29,214.7,32.6z"/>
<path class="st0" d="M90.4,33.6c-0.4,4,0,10.3,5.4,10.6c2.2,0,4.4-0.8,6.1-2.4c0.8-0.7,1.6-1.5,2.2-2.4c0.6-0.8,0.9-1.7,1.9-1.2
	c-2.7,5-8.3,8.3-14,6.7c-2.7-0.6-4.9-2.5-6-5.1c-1-2.7-0.7-6-0.2-8.8C87,25.3,91,19.5,96.7,17.3c2.8-1.1,6.4-1.1,8.9,0.8
	c2,1.5,3,4.1,2.5,6.6c-0.7,3.3-3,6-6,7.5C98.3,34,94.4,33.6,90.4,33.6z M90.6,32.6c5.8,0.5,13.3-1.1,15.3-7.4
	c0.9-2.9,0.5-6.4-2.9-7.4s-6.4,2.2-8.2,4.7C92.7,25.6,91.3,29,90.6,32.6L90.6,32.6z"/>
<path class="st0" d="M69.3,30.8c1.5-3.4,3.2-6.6,5.3-9.7c1.7-2.4,4.5-5.5,7.8-4.6c1.8,0.5,2.8,2.3,2.4,4.1c-0.2,0.8-0.7,1.5-1.5,2
	c-1.1,0.7-2.6,0.6-3.7-0.1c-1.2-0.9-1.3-2.3-1.3-3.7c-1.1,0.7-2,1.7-2.7,2.8c-0.8,1.1-1.6,2.2-2.3,3.3c-1.4,2.4-2.7,4.9-3.6,7.5
	c-1,2.8-1.9,5.6-2.6,8.5c-0.2,0.7-0.4,1.5-0.5,2.2c-0.1,0.4-0.2,1-0.6,1.2s-1.2,0.1-1.7,0.1c-0.9,0-1.8,0-2.6,0l5.4-26L62.7,19
	c-0.4,0-1,0.1-0.9-0.5s0.9-0.5,1.4-0.5l9-1.4l-1.5,7.3l-0.8,3.5l-0.4,1.8C69.3,29.6,68.9,30.6,69.3,30.8z"/>
<path class="st0" d="M168.6,30.6c0.5-0.2,0.6-0.6,0.8-1c0.3-0.7,0.6-1.4,1-2c0.6-1.3,1.3-2.6,2-3.8c1.3-2.5,3.1-4.7,5.3-6.4
	c1.8-1.3,4.8-1.6,6.2,0.5c1,1.6,0.5,3.6-1.1,4.6c-0.3,0.2-0.7,0.4-1.1,0.4c-1.1,0.2-2.3-0.1-3.1-1c-0.7-1-0.9-2.3-0.8-3.5
	c-3.9,4-6.9,8.8-8.8,14.1c-1,2.5-1.8,5.1-2.5,7.8c-0.2,0.6-0.3,1.2-0.5,1.9c-0.1,0.4-0.2,1.9-0.5,2.2s-1,0-1.2,0h-3.4l5.4-25.9
	c-1.4,0.1-2.8,0.2-4.2,0.5c-0.3,0-0.7,0.1-0.9-0.2c-0.6-0.8,0.8-0.8,1.2-0.9l9.1-1.4L168.6,30.6z"/>
<path class="st0" d="M205.5,38.3c-3.2,4.7-8.2,8.4-14.1,6.8c-2.4-0.6-4.5-2.2-5.7-4.4c-1.3-2.5-1.2-5.5-0.9-8.2
	c0.8-5.8,4-10.9,8.9-14.1c2.8-1.9,6.3-2.4,9.5-1.5c2.6,0.7,4.4,3.1,4.3,5.9c0,1.5-0.9,2.9-2.3,3.5c-1.4,0.6-3,0.1-3.9-1.1
	c-0.9-1.3-0.6-3.2,0.8-4.1c1.3-0.9,3.2-0.6,4.1,0.8c0.1,0.1,0.1,0.2,0.2,0.3c0.2-3.9-4.5-5.1-7.5-3.9c-3.4,1.4-5.8,5.3-7.3,8.6
	c-1.5,3.4-2.7,7.9-2,11.6c0.7,3.4,3,6.2,6.7,5.7c2-0.4,3.9-1.4,5.4-2.9c0.7-0.7,1.3-1.4,1.9-2.2C204.2,38.3,204.6,37.3,205.5,38.3z"
	/>
<path class="st0" d="M21.9,22.1c-0.1-2.1-1.6-3.9-3.7-4.3c-2.4-0.4-4.8,0.4-6.5,2.2c-3.5,3.6-5.8,8.2-6.5,13.1
	C4.6,35.8,4.9,38.5,6,41c0.8,1.7,2.5,2.9,4.4,3.1c2.3,0.1,4.6-0.8,6.3-2.4c0.8-0.7,1.5-1.5,2.2-2.4c0.3-0.4,0.6-0.9,0.9-1.3
	c0.3-0.2,1.1-0.5,1.1,0.2c0,0.2-0.7,1-0.8,1.2c-0.3,0.5-0.7,0.9-1.1,1.3c-0.7,0.8-1.6,1.6-2.5,2.3c-1.9,1.4-4.1,2.2-6.4,2.4
	c-4.2,0.3-8.1-2.3-9.4-6.3c-1.7-4.7,0-10.4,2.5-14.6s6.9-7.8,12-8c2.6-0.1,5.6,0.7,7,3c1.2,1.9,1.2,5.2-0.9,6.5s-5,0-4.9-2.5
	c0.1-1.3,0.9-2.3,2.1-2.7C19.8,20.4,21.2,21,21.9,22.1z"/>
<path class="st0" d="M113.2,38h4.7c-0.8,3.8-1.5,7.7-2.7,11.4c-1.1,3.5-2.6,7-5.2,9.7c-2.4,2.4-5.8,3.9-9.2,2.8
	c-1.4-0.3-2.4-1.4-2.8-2.7c-0.4-1.4,0.2-2.8,1.4-3.5c1.4-0.8,3.3-0.3,4.1,1.1c0,0.1,0.1,0.2,0.1,0.2c0.4,0.8,0.4,1.7,0,2.5
	c-0.2,0.4-0.4,0.7-0.8,1c-0.2,0.2-0.5,0.2-0.6,0.6c4.6,0.4,6.6-4.2,7.7-8C111.3,48.2,112.2,43.1,113.2,38z"/>
<path class="st1" d="M118.2,36.3h-4.7l1-5.2H109l0.5-2.9l0.2-1c0.1-0.8,0.1-0.7,0.9-0.7h4.2c0.7,0,0.8,0.1,0.9-0.6
	c0.2-1,0.4-1.9,0.6-2.9c0.1-0.5,0.1-1.5,0.5-1.9s1.3-0.2,1.8-0.2c0.9,0,1.9,0,2.8,0l-1.1,5.4h5.5l-0.3,2.1c0,0.7-0.1,1.4-0.3,2.1
	l-0.1,0.4h-3.9c-1,0-1.9-0.2-2.2,1C118.7,33.4,118.5,34.9,118.2,36.3z"/>
<g class="st2">
	<path class="st1" d="M2.3,56.4c0.6-0.1,1.4-0.1,2.4-0.1c1.3,0,2.2,0.2,2.8,0.5c0.5,0.3,0.9,0.7,0.9,1.2c0,0.5-0.3,0.9-0.8,1.2
		c-0.7,0.4-1.8,0.6-3,0.6c-0.4,0-0.7,0-1-0.1V62H2.3V56.4z M3.6,59.1c0.3,0,0.6,0.1,1.1,0.1c1.5,0,2.5-0.4,2.5-1.2
		c0-0.8-0.9-1.1-2.3-1.1c-0.6,0-1,0-1.2,0.1V59.1z"/>
	<path class="st1" d="M15.2,59.3h-3.8v2.1h4.3V62h-5.6v-5.7h5.3v0.6h-4.1v1.8h3.8V59.3z"/>
	<path class="st1" d="M17.3,56.4c0.6-0.1,1.6-0.1,2.4-0.1c1.4,0,2.2,0.1,2.9,0.5c0.5,0.3,0.8,0.6,0.8,1.1c0,0.8-0.8,1.3-1.9,1.5v0
		c0.8,0.2,1.2,0.6,1.5,1.2c0.3,0.8,0.6,1.3,0.8,1.6h-1.3c-0.2-0.2-0.4-0.7-0.7-1.4c-0.3-0.8-0.8-1.1-2-1.1h-1.2V62h-1.3V56.4z
		 M18.6,59h1.3c1.4,0,2.2-0.4,2.2-1.1c0-0.7-0.9-1.1-2.3-1.1c-0.6,0-1.1,0-1.3,0.1V59z"/>
	<path class="st1" d="M25,61.1c0.6,0.2,1.4,0.4,2.3,0.4c1.3,0,2.1-0.4,2.1-1c0-0.5-0.5-0.8-1.9-1.1c-1.6-0.3-2.6-0.8-2.6-1.6
		c0-0.9,1.3-1.5,3.2-1.5c1,0,1.7,0.1,2.2,0.3L30,57.1c-0.3-0.1-1-0.3-1.9-0.3c-1.3,0-1.9,0.5-1.9,0.9c0,0.5,0.6,0.8,2,1.1
		c1.7,0.4,2.5,0.8,2.5,1.7c0,0.9-1.1,1.6-3.5,1.6c-1,0-2-0.2-2.5-0.4L25,61.1z"/>
	<path class="st1" d="M40.9,59.1c0,2-2.1,3-4.6,3c-2.6,0-4.4-1.2-4.4-2.9c0-1.8,2-3,4.6-3C39.2,56.2,40.9,57.4,40.9,59.1z
		 M33.2,59.2c0,1.2,1.1,2.3,3.2,2.3c2,0,3.2-1.1,3.2-2.4c0-1.1-1-2.3-3.2-2.3C34.3,56.8,33.2,57.9,33.2,59.2z"/>
	<path class="st1" d="M42.6,62v-5.7h1.4l3.2,2.9c0.7,0.7,1.3,1.3,1.8,1.9l0,0c-0.1-0.8-0.1-1.5-0.1-2.3v-2.4H50V62h-1.3l-3.1-2.9
		c-0.7-0.6-1.3-1.3-1.8-1.9l0,0c0.1,0.7,0.1,1.4,0.1,2.4V62H42.6z"/>
	<path class="st1" d="M53.8,60.2l-1,1.8h-1.3l3.4-5.7h1.5l3.4,5.7h-1.4l-1.1-1.8H53.8z M57,59.6l-1-1.6c-0.2-0.4-0.4-0.7-0.5-1h0
		c-0.1,0.3-0.3,0.7-0.5,1l-1,1.7H57z"/>
	<path class="st1" d="M61.2,56.3h1.3v5.1h4.2V62h-5.5V56.3z"/>
	<path class="st1" d="M69.4,56.3V62h-1.3v-5.7H69.4z"/>
	<path class="st1" d="M70.9,61.6l5.5-4.6v0h-5v-0.6h6.7v0.4l-5.5,4.6v0h5.5V62h-7.2V61.6z"/>
	<path class="st1" d="M84.8,59.3H81v2.1h4.3V62h-5.6v-5.7h5.3v0.6H81v1.8h3.8V59.3z"/>
	<path class="st1" d="M86.9,56.4c0.8-0.1,1.7-0.1,2.7-0.1c1.8,0,3.1,0.2,4,0.7c0.9,0.5,1.4,1.1,1.4,2.1c0,0.9-0.5,1.7-1.4,2.2
		c-0.9,0.5-2.4,0.8-4.4,0.8c-0.9,0-1.7,0-2.3-0.1V56.4z M88.2,61.4c0.3,0,0.8,0,1.3,0c2.7,0,4.2-0.9,4.2-2.4c0-1.3-1.3-2.2-4-2.2
		c-0.7,0-1.2,0-1.5,0.1V61.4z"/>
</g>
<g class="st2">
	<path class="st1" d="M118.9,55.8v2.6h4.3v-2.6h1.2V62h-1.2v-2.9h-4.3V62h-1.2v-6.2H118.9z"/>
	<path class="st1" d="M134,58.8c0,2.1-1.9,3.3-4.1,3.3c-2.4,0-4-1.3-4-3.1c0-2,1.8-3.3,4.1-3.3C132.4,55.7,134,57,134,58.8z
		 M127.1,58.9c0,1.3,1,2.5,2.8,2.5c1.8,0,2.9-1.2,2.9-2.6c0-1.2-0.9-2.5-2.8-2.5C128,56.4,127.1,57.6,127.1,58.9z"/>
	<path class="st1" d="M143,59.3c-0.1-0.9-0.1-1.9-0.1-2.7h0c-0.3,0.7-0.7,1.5-1.1,2.4l-1.6,3h-0.9l-1.4-3c-0.4-0.9-0.8-1.7-1-2.4h0
		c0,0.8-0.1,1.8-0.2,2.7l-0.2,2.7h-1.1l0.6-6.2h1.5l1.5,3c0.4,0.8,0.7,1.4,0.9,2.1h0c0.2-0.6,0.5-1.3,0.9-2.1l1.6-3h1.5l0.6,6.2
		h-1.1L143,59.3z"/>
	<path class="st1" d="M150.7,59.1h-3.5v2.2h3.9V62h-5v-6.2h4.8v0.7h-3.7v2h3.5V59.1z"/>
	<path class="st1" d="M156.6,55.8v2.6h4.3v-2.6h1.2V62h-1.2v-2.9h-4.3V62h-1.1v-6.2H156.6z"/>
	<path class="st1" d="M168.6,59.1h-3.5v2.2h3.9V62h-5v-6.2h4.8v0.7h-3.7v2h3.5V59.1z"/>
	<path class="st1" d="M172,60.1l-0.9,2h-1.2l3-6.2h1.4l3,6.2h-1.2l-1-2H172z M174.9,59.4l-0.9-1.8c-0.2-0.4-0.3-0.8-0.5-1.1h0
		c-0.1,0.4-0.3,0.7-0.4,1.1l-0.9,1.8H174.9z"/>
	<path class="st1" d="M178.6,55.8h1.2v5.5h3.8V62h-5V55.8z"/>
	<path class="st1" d="M185.4,56.5h-2.7v-0.7h6.6v0.7h-2.7V62h-1.2V56.5z"/>
	<path class="st1" d="M191.4,55.8v2.6h4.3v-2.6h1.2V62h-1.2v-2.9h-4.3V62h-1.2v-6.2H191.4z"/>
	<path class="st1" d="M207.9,61.8c-0.4,0.1-1.3,0.3-2.4,0.3c-2.5,0-4.4-1.1-4.4-3.1c0-1.9,1.9-3.3,4.7-3.3c1.1,0,1.8,0.2,2.1,0.3
		l-0.3,0.7c-0.4-0.1-1.1-0.3-1.8-0.3c-2.1,0-3.5,0.9-3.5,2.6c0,1.5,1.3,2.5,3.4,2.5c0.7,0,1.4-0.1,1.9-0.3L207.9,61.8z"/>
	<path class="st1" d="M210.8,60.1l-0.9,2h-1.2l3-6.2h1.4l3,6.2h-1.2l-1-2H210.8z M213.7,59.4l-0.9-1.8c-0.2-0.4-0.3-0.8-0.5-1.1h0
		c-0.1,0.4-0.3,0.7-0.4,1.1l-0.9,1.8H213.7z"/>
	<path class="st1" d="M217.5,55.9c0.6-0.1,1.4-0.1,2.2-0.1c1.2,0,2,0.2,2.6,0.5c0.4,0.3,0.7,0.7,0.7,1.2c0,0.8-0.7,1.4-1.7,1.6v0
		c0.7,0.2,1.1,0.6,1.3,1.3c0.3,0.9,0.5,1.5,0.7,1.7h-1.2c-0.1-0.2-0.3-0.7-0.6-1.5c-0.3-0.9-0.7-1.2-1.8-1.2h-1.1V62h-1.1V55.9z
		 M218.6,58.7h1.2c1.2,0,2-0.5,2-1.2c0-0.8-0.8-1.2-2-1.2c-0.6,0-1,0-1.1,0.1V58.7z"/>
	<path class="st1" d="M229.2,59.1h-3.5v2.2h3.9V62h-5v-6.2h4.8v0.7h-3.7v2h3.5V59.1z"/>
</g>
</svg>
