<svg id="Layer_1" data-name="Layer 1" xmlns="http://www.w3.org/2000/svg" viewBox="0 0 412.14 168.54"><defs><style>.cls-1{fill:#050505;}.cls-2{fill:#f49525;}</style></defs><title>post-trace-illustrator-source-sans-font</title><path class="cls-1" d="M268.15,104.91v10.92h-33v33h21.75V138.46H242.12c1.3-4,2.46-7.59,3.68-11.38,5.7,0,11.41-.22,17.08.08,3.75.2,5.31,3.11,5.39,6.52q.24,9.93,0,19.86c-.12,4.58-2.54,6.72-7.2,6.74-9.74,0-19.48,0-29.23,0-6,0-8.19-2-8.26-8-.12-9.49,0-19,0-28.48,0-3.87-.12-7.75.05-11.62.24-5.3,2.49-7.41,7.78-7.43,11.36,0,22.73,0,34.1,0C266.31,104.74,267.16,104.84,268.15,104.91Z" transform="translate(-44.86 -30.64)"/><path class="cls-1" d="M89.41,104.73c-1.3,3.89-2.51,7.51-3.79,11.32H56.23v10.74h23.1c8.52,0,10.11,1.56,10.1,10,0,5.74.08,11.49-.14,17.23-.16,4-2.52,6.19-6.5,6.22-11.36.09-22.72,0-34.08,0H45.12V149.11h32.8V138.29q-11.49,0-23,0c-8.49,0-10-1.54-10-10,0-5.62,0-11.24,0-16.86,0-4,2-6.56,6.06-6.61C63.65,104.63,76.37,104.73,89.41,104.73Z" transform="translate(-44.86 -30.64)"/><path class="cls-1" d="M442.33,119.43l-3.81,11.37H423.91v18h21.82V105H457V120.6c0,10.74,0,21.49,0,32.23,0,5.41-2.08,7.44-7.46,7.45q-14.81,0-29.61,0c-5,0-7.4-2.2-7.47-7.26q-.18-13.11,0-26.23c.07-4.73,2.28-7.2,6.73-7.31C426.65,119.29,434.14,119.43,442.33,119.43Z" transform="translate(-44.86 -30.64)"/><path class="cls-1" d="M186.86,145.4V134.33h18.06c.07-1.22.13-2.19.2-3.32H183.29v17.84H209l-3.54,11.41c-9.34,0-18.67.18-28-.09-3.61-.1-5.53-2.81-5.57-6.36-.11-9.24-.13-18.49,0-27.73.06-4.14,2.47-6.55,6.62-6.6q15.56-.23,31.11,0c4.25.06,6.52,2.33,6.69,6.51.19,4.49.16,9,0,13.49-.15,3.65-2.27,5.85-6,5.91C202.59,145.49,194.86,145.4,186.86,145.4Z" transform="translate(-44.86 -30.64)"/><path class="cls-1" d="M338.8,149h18.33c-1.27,3.9-2.44,7.48-3.69,11.29-6.78,0-13.52.14-20.24-.06-3.47-.1-5.59-2.31-5.64-5.8q-.19-14.41,0-28.85c.05-3.87,2.47-6,6.24-6.08,10.5-.14,21-.16,31.5,0,4.16.06,6.55,2.53,6.59,6.64.11,11.23,0,22.46,0,33.93H360.78V131.16h-22Z" transform="translate(-44.86 -30.64)"/><path class="cls-1" d="M141.15,160.18h-11.1v-29h-21.9v17.72h18.26l-3.7,11.35c-6.85,0-13.81.21-20.75-.09-3.52-.15-5.18-2.89-5.22-6.24-.1-9.23-.14-18.47,0-27.71.06-4.46,2.29-6.67,6.81-6.73q15.35-.21,30.7,0c4.48.06,6.81,2.37,6.85,6.72C141.22,137.39,141.15,148.61,141.15,160.18Z" transform="translate(-44.86 -30.64)"/><path class="cls-1" d="M275.53,119.63h11v29.16h22.31V119.6h11.33c0,11.54.12,22.88-.06,34.22-.07,4.3-2.67,6.44-7.09,6.46q-15.18.06-30.35,0c-4.56,0-7-1.86-7.05-6.42C275.37,142.52,275.53,131.18,275.53,119.63Z" transform="translate(-44.86 -30.64)"/><path class="cls-2" d="M213.84,104,177.06,68.73l.53-.71,35.22,18.43L280,30.64l.75.71Z" transform="translate(-44.86 -30.64)"/><path class="cls-1" d="M170.19,104.73c-1.3,4-2.44,7.55-3.63,11.27H160v3.22l6.51.37v11.17h-6.56V160h-11a2,2,0,0,1-.34-.81c0-16-.06-31.95,0-47.92,0-4.15,2.29-6.4,6.58-6.53C160,104.62,164.83,104.73,170.19,104.73Z" transform="translate(-44.86 -30.64)"/><path class="cls-1" d="M405.17,130.83H390.69V160H379.33V138.19c0-4,0-8,0-12s2-6.56,6-6.66c7.69-.2,15.4-.06,23.54-.06C407.62,123.42,406.43,127,405.17,130.83Z" transform="translate(-44.86 -30.64)"/><path d="M45.38,178.06h5c3.9,0,6.53,1.19,6.53,4.64s-2.62,4.86-6.42,4.86H47.59v6.25H45.38Zm4.8,7.88c3,0,4.49-1,4.49-3.24s-1.54-3-4.6-3H47.59v6.26Z" transform="translate(-44.86 -30.64)"/><path d="M60.19,182.14H62l.18,2.13h.07a4.45,4.45,0,0,1,3.67-2.41,3.14,3.14,0,0,1,1.37.24l-.4,1.73a3.9,3.9,0,0,0-1.25-.2c-1.09,0-2.39.72-3.26,2.69v7.49H60.19Z" transform="translate(-44.86 -30.64)"/><path d="M68.18,188a6,6,0,1,1,6,6.11A5.83,5.83,0,0,1,68.18,188Zm9.69,0c0-2.67-1.5-4.49-3.72-4.49s-3.71,1.82-3.71,4.49,1.5,4.47,3.71,4.47S77.87,190.67,77.87,188Z" transform="translate(-44.86 -30.64)"/><path d="M83.52,182.14h1.8l.19,1.35h.07a7.14,7.14,0,0,1,4.11-1.63c3.33,0,5.11,2.33,5.11,5.94,0,4-2.64,6.3-5.58,6.3a6.17,6.17,0,0,1-3.57-1.35l0,2v3.95H83.52Zm9,5.68c0-2.58-1-4.3-3.4-4.3a5.55,5.55,0,0,0-3.45,1.59v6.11a5.34,5.34,0,0,0,3.14,1.22C91,192.44,92.55,190.7,92.55,187.82Z" transform="translate(-44.86 -30.64)"/><path d="M97.28,188a5.86,5.86,0,0,1,5.79-6.13c3.29,0,5.15,2.13,5.15,5.47a5.88,5.88,0,0,1-.1,1.12H99.43a4.09,4.09,0,0,0,4.29,4.08,6.1,6.1,0,0,0,3.21-.94l.78,1.3a8.15,8.15,0,0,1-4.26,1.21A5.85,5.85,0,0,1,97.28,188Zm9-1c0-2.34-1.16-3.61-3.18-3.61a3.78,3.78,0,0,0-3.7,3.61Z" transform="translate(-44.86 -30.64)"/><path d="M111.38,182.14h1.8l.19,2.13h.07a4.45,4.45,0,0,1,3.67-2.41,3.14,3.14,0,0,1,1.37.24l-.41,1.73a3.81,3.81,0,0,0-1.25-.2c-1.08,0-2.39.72-3.26,2.69v7.49h-2.18Z" transform="translate(-44.86 -30.64)"/><path d="M121,190.2v-6.45h-1.91v-1.49l2-.12.26-3.27h1.82v3.27h3.5v1.61h-3.5v6.49c0,1.42.51,2.25,2,2.25a4.88,4.88,0,0,0,1.47-.31l.42,1.49a8.63,8.63,0,0,1-2.39.43C121.9,194.1,121,192.52,121,190.2Z" transform="translate(-44.86 -30.64)"/><path d="M128.26,198.6l.43-1.57a4.08,4.08,0,0,0,1,.17c1.46,0,2.38-1.06,2.91-2.5l.29-.87-5.17-11.69H130l2.63,6.46c.4,1,.84,2.21,1.26,3.29h.1c.37-1.06.73-2.26,1.09-3.29l2.29-6.46h2.14l-4.86,12.63c-.91,2.32-2.24,4.07-4.82,4.07A4.75,4.75,0,0,1,128.26,198.6Z" transform="translate(-44.86 -30.64)"/><path d="M147.46,178.06h2.67l3.34,8.41c.42,1.08.82,2.19,1.23,3.29h.11c.42-1.1.78-2.21,1.2-3.29l3.3-8.41H162v15.75h-2.06v-8.67c0-1.38.17-3.27.28-4.66h-.1l-1.39,3.59-3.27,8.15H154l-3.3-8.15-1.38-3.59h-.1c.11,1.39.28,3.28.28,4.66v8.67h-2Z" transform="translate(-44.86 -30.64)"/><path d="M165.74,190.78c0-2.54,2.42-3.81,7.91-4.35,0-1.5-.55-3-2.66-3a7.58,7.58,0,0,0-3.84,1.25l-.86-1.35a10.11,10.11,0,0,1,5.07-1.52c3.14,0,4.47,1.89,4.47,4.79v7.16H174l-.18-1.39h-.07a7.26,7.26,0,0,1-4.27,1.68C167.35,194.1,165.74,192.89,165.74,190.78Zm7.91.18v-3.24c-4.32.47-5.78,1.43-5.78,2.92,0,1.33,1,1.87,2.26,1.87A5.53,5.53,0,0,0,173.65,191Z" transform="translate(-44.86 -30.64)"/><path d="M179.91,182.14h1.8l.19,1.69H182a6.39,6.39,0,0,1,4.33-2c2.71,0,3.93,1.58,3.93,4.56v7.39h-2.18v-7.14c0-2.17-.73-3.1-2.43-3.1-1.32,0-2.23.61-3.53,1.79v8.45h-2.18Z" transform="translate(-44.86 -30.64)"/><path d="M193.61,190.78c0-2.54,2.43-3.81,7.92-4.35,0-1.5-.56-3-2.66-3a7.62,7.62,0,0,0-3.85,1.25l-.85-1.35a10.1,10.1,0,0,1,5.06-1.52c3.15,0,4.48,1.89,4.48,4.79v7.16h-1.8l-.19-1.39h-.07a7.24,7.24,0,0,1-4.26,1.68C195.23,194.1,193.61,192.89,193.61,190.78Zm7.92.18v-3.24c-4.32.47-5.78,1.43-5.78,2.92,0,1.33,1,1.87,2.26,1.87A5.55,5.55,0,0,0,201.53,191Z" transform="translate(-44.86 -30.64)"/><path d="M206.81,196.05a3.28,3.28,0,0,1,1.89-2.64v-.09a2.14,2.14,0,0,1-1.15-1.91,2.76,2.76,0,0,1,1.42-2.17v-.1A3.91,3.91,0,0,1,207.3,186c0-2.55,2.22-4.15,4.83-4.15a5.75,5.75,0,0,1,1.82.28h4.5v1.52H215.8a3.21,3.21,0,0,1,1,2.4c0,2.5-2.08,4.05-4.72,4.05a5,5,0,0,1-1.92-.4,1.7,1.7,0,0,0-.82,1.38c0,.74.53,1.27,2.26,1.27h2.51c3,0,4.5.85,4.5,2.79,0,2.16-2.53,4-6.51,4C209,199.18,206.81,198.06,206.81,196.05Zm9.72-.61c0-1.08-.91-1.45-2.6-1.45H211.7a8.45,8.45,0,0,1-1.67-.17,2.4,2.4,0,0,0-1.32,2c0,1.26,1.4,2,3.74,2S216.53,196.66,216.53,195.44ZM214.87,186a2.74,2.74,0,0,0-5.47,0,2.74,2.74,0,1,0,5.47,0Z" transform="translate(-44.86 -30.64)"/><path d="M219.84,188a5.85,5.85,0,0,1,5.79-6.13c3.29,0,5.14,2.13,5.14,5.47a5.17,5.17,0,0,1-.1,1.12H222a4.09,4.09,0,0,0,4.28,4.08,6,6,0,0,0,3.21-.94l.78,1.3A8.11,8.11,0,0,1,226,194.1,5.85,5.85,0,0,1,219.84,188Zm9-1c0-2.34-1.16-3.61-3.18-3.61A3.78,3.78,0,0,0,222,187Z" transform="translate(-44.86 -30.64)"/><path d="M233.94,182.14h1.8l.19,1.69H236a5.91,5.91,0,0,1,4-2,3.39,3.39,0,0,1,3.56,2.22c1.34-1.31,2.68-2.22,4.25-2.22,2.65,0,3.92,1.58,3.92,4.56v7.39h-2.18v-7.14c0-2.17-.76-3.1-2.4-3.1a4.83,4.83,0,0,0-3.23,1.79v8.45h-2.18v-7.14c0-2.17-.76-3.1-2.4-3.1a4.91,4.91,0,0,0-3.23,1.79v8.45h-2.18Z" transform="translate(-44.86 -30.64)"/><path d="M255,188a5.86,5.86,0,0,1,5.8-6.13c3.29,0,5.14,2.13,5.14,5.47a5.88,5.88,0,0,1-.1,1.12h-8.68a4.09,4.09,0,0,0,4.28,4.08,6,6,0,0,0,3.21-.94l.78,1.3a8.11,8.11,0,0,1-4.25,1.21A5.86,5.86,0,0,1,255,188Zm9-1c0-2.34-1.17-3.61-3.18-3.61a3.78,3.78,0,0,0-3.7,3.61Z" transform="translate(-44.86 -30.64)"/><path d="M269.07,182.14h1.8l.18,1.69h.08a6.36,6.36,0,0,1,4.32-2c2.72,0,3.94,1.58,3.94,4.56v7.39h-2.18v-7.14c0-2.17-.73-3.1-2.44-3.1-1.31,0-2.23.61-3.52,1.79v8.45h-2.18Z" transform="translate(-44.86 -30.64)"/><path d="M284,190.2v-6.45H282v-1.49l2-.12.26-3.27h1.82v3.27h3.49v1.61h-3.49v6.49c0,1.42.51,2.25,2,2.25a4.88,4.88,0,0,0,1.47-.31l.42,1.49a8.5,8.5,0,0,1-2.39.43C284.88,194.1,284,192.52,284,190.2Z" transform="translate(-44.86 -30.64)"/><path d="M296.51,189.74c0-4.68,7.95-5.44,7.95-8.82a1.56,1.56,0,0,0-1.64-1.74,2.12,2.12,0,0,0-2.14,2.3c0,2.94,3.57,6.87,6.91,9.11a13,13,0,0,0,3.83,1.87l-.59,1.64a14.08,14.08,0,0,1-4.55-2.2c-3.81-2.67-7.48-7.06-7.48-10.39a3.74,3.74,0,0,1,4-3.74c2.16,0,3.42,1.29,3.42,3.12,0,4-7.6,5.27-7.6,8.73,0,1.75,1.52,2.91,3.44,2.91a6,6,0,0,0,4-1.86,12.29,12.29,0,0,0,3.12-5.35h2a16.37,16.37,0,0,1-3.63,6.3,7.84,7.84,0,0,1-5.75,2.48C298.67,194.1,296.51,192.27,296.51,189.74Z" transform="translate(-44.86 -30.64)"/><path d="M318.24,191.76l1.32-1.38a7.16,7.16,0,0,0,4.81,2c2.28,0,3.63-1,3.63-2.56s-1.26-2.13-2.9-2.78l-2.5-1c-1.62-.63-3.52-1.74-3.52-4.06s2.31-4.18,5.48-4.18a7.57,7.57,0,0,1,5.12,1.95L328.51,181a5.9,5.9,0,0,0-3.95-1.48c-2,0-3.25.89-3.25,2.3s1.52,2.09,2.88,2.61l2.48,1c2,.78,3.59,1.87,3.59,4.21,0,2.49-2.27,4.48-5.93,4.48A8.76,8.76,0,0,1,318.24,191.76Z" transform="translate(-44.86 -30.64)"/><path d="M332.49,188a5.86,5.86,0,0,1,5.8-6.13c3.29,0,5.14,2.13,5.14,5.47a5.88,5.88,0,0,1-.1,1.12h-8.68a4.09,4.09,0,0,0,4.28,4.08,6,6,0,0,0,3.21-.94l.78,1.3a8.11,8.11,0,0,1-4.25,1.21A5.86,5.86,0,0,1,332.49,188Zm9-1c0-2.34-1.17-3.61-3.18-3.61a3.78,3.78,0,0,0-3.7,3.61Z" transform="translate(-44.86 -30.64)"/><path d="M346.6,182.14h1.8l.18,2.13h.08a4.42,4.42,0,0,1,3.66-2.41,3.22,3.22,0,0,1,1.38.24l-.41,1.73a3.81,3.81,0,0,0-1.25-.2c-1.09,0-2.39.72-3.26,2.69v7.49H346.6Z" transform="translate(-44.86 -30.64)"/><path d="M354.61,182.14h2.25l2.44,6.63c.38,1.14.8,2.33,1.19,3.44h.1c.39-1.11.81-2.3,1.19-3.44l2.44-6.63h2.14l-4.56,11.67h-2.54Z" transform="translate(-44.86 -30.64)"/><path d="M368.45,178.47a1.53,1.53,0,0,1,3,0,1.53,1.53,0,0,1-3,0Zm.4,3.67H371v11.67h-2.19Z" transform="translate(-44.86 -30.64)"/><path d="M374.43,188a5.93,5.93,0,0,1,6.2-6.13,5.74,5.74,0,0,1,3.77,1.36l-1.11,1.31a4,4,0,0,0-2.56-1c-2.34,0-4.05,1.82-4.05,4.49s1.62,4.47,4,4.47a4.89,4.89,0,0,0,3-1.17l.94,1.33a6.67,6.67,0,0,1-4.17,1.48A5.73,5.73,0,0,1,374.43,188Z" transform="translate(-44.86 -30.64)"/><path d="M386,188a5.85,5.85,0,0,1,5.79-6.13c3.29,0,5.14,2.13,5.14,5.47a5.88,5.88,0,0,1-.1,1.12h-8.68a4.09,4.09,0,0,0,4.28,4.08,6,6,0,0,0,3.21-.94l.78,1.3a8.11,8.11,0,0,1-4.25,1.21A5.85,5.85,0,0,1,386,188Zm9-1c0-2.34-1.17-3.61-3.18-3.61a3.78,3.78,0,0,0-3.7,3.61Z" transform="translate(-44.86 -30.64)"/><path d="M398.63,192.48l1.08-1.3a6.11,6.11,0,0,0,3.8,1.38c1.69,0,2.53-.82,2.53-1.81,0-1.2-1.52-1.73-2.94-2.21-1.81-.6-3.85-1.4-3.85-3.37s1.65-3.31,4.45-3.31a7,7,0,0,1,4,1.31l-1,1.26a5.16,5.16,0,0,0-2.94-1c-1.62,0-2.37.79-2.37,1.68,0,1.11,1.4,1.53,2.86,2,1.86.63,3.93,1.32,3.93,3.54,0,1.89-1.66,3.47-4.7,3.47A8.21,8.21,0,0,1,398.63,192.48Z" transform="translate(-44.86 -30.64)"/></svg>